<mxfile host="app.diagrams.net" modified="2021-12-17T08:56:31.689Z" agent="5.0 (Windows NT 10.0; Win64; x64) AppleWebKit/537.36 (KHTML, like Gecko) Chrome/96.0.4664.93 Safari/537.36" etag="Y5L7Gmxm91czYNygbhZp" version="15.9.6" type="github">
  <diagram id="C5RBs43oDa-KdzZeNtuy" name="Page-1">
    <mxGraphModel dx="1294" dy="835" grid="1" gridSize="10" guides="1" tooltips="1" connect="1" arrows="1" fold="1" page="1" pageScale="1" pageWidth="827" pageHeight="1169" math="0" shadow="0">
      <root>
        <mxCell id="WIyWlLk6GJQsqaUBKTNV-0" />
        <mxCell id="WIyWlLk6GJQsqaUBKTNV-1" parent="WIyWlLk6GJQsqaUBKTNV-0" />
        <mxCell id="WIyWlLk6GJQsqaUBKTNV-2" value="" style="rounded=0;html=1;jettySize=auto;orthogonalLoop=1;fontSize=11;endArrow=block;endFill=0;endSize=8;strokeWidth=1;shadow=0;labelBackgroundColor=none;edgeStyle=orthogonalEdgeStyle;" parent="WIyWlLk6GJQsqaUBKTNV-1" source="WIyWlLk6GJQsqaUBKTNV-3" edge="1">
          <mxGeometry relative="1" as="geometry">
            <mxPoint x="220" y="160" as="targetPoint" />
          </mxGeometry>
        </mxCell>
        <mxCell id="WIyWlLk6GJQsqaUBKTNV-3" value="开始" style="rounded=1;whiteSpace=wrap;html=1;fontSize=12;glass=0;strokeWidth=1;shadow=0;" parent="WIyWlLk6GJQsqaUBKTNV-1" vertex="1">
          <mxGeometry x="160" y="80" width="120" height="40" as="geometry" />
        </mxCell>
        <mxCell id="YJ1XwpKjJDsEHSPNjQmD-10" value="" style="edgeStyle=none;rounded=0;orthogonalLoop=1;jettySize=auto;html=1;entryX=0.5;entryY=0;entryDx=0;entryDy=0;" edge="1" parent="WIyWlLk6GJQsqaUBKTNV-1" source="YJ1XwpKjJDsEHSPNjQmD-0" target="YJ1XwpKjJDsEHSPNjQmD-11">
          <mxGeometry relative="1" as="geometry" />
        </mxCell>
        <mxCell id="YJ1XwpKjJDsEHSPNjQmD-0" value="新建场景" style="rounded=0;whiteSpace=wrap;html=1;" vertex="1" parent="WIyWlLk6GJQsqaUBKTNV-1">
          <mxGeometry x="160" y="160" width="120" height="60" as="geometry" />
        </mxCell>
        <mxCell id="YJ1XwpKjJDsEHSPNjQmD-6" style="edgeStyle=none;rounded=0;orthogonalLoop=1;jettySize=auto;html=1;entryX=0.5;entryY=0;entryDx=0;entryDy=0;" edge="1" parent="WIyWlLk6GJQsqaUBKTNV-1" source="YJ1XwpKjJDsEHSPNjQmD-1" target="YJ1XwpKjJDsEHSPNjQmD-2">
          <mxGeometry relative="1" as="geometry" />
        </mxCell>
        <mxCell id="YJ1XwpKjJDsEHSPNjQmD-1" value="图表组件" style="rounded=0;whiteSpace=wrap;html=1;" vertex="1" parent="WIyWlLk6GJQsqaUBKTNV-1">
          <mxGeometry x="160" y="340" width="120" height="50" as="geometry" />
        </mxCell>
        <mxCell id="YJ1XwpKjJDsEHSPNjQmD-7" value="" style="edgeStyle=none;rounded=0;orthogonalLoop=1;jettySize=auto;html=1;" edge="1" parent="WIyWlLk6GJQsqaUBKTNV-1" source="YJ1XwpKjJDsEHSPNjQmD-2" target="YJ1XwpKjJDsEHSPNjQmD-3">
          <mxGeometry relative="1" as="geometry" />
        </mxCell>
        <mxCell id="YJ1XwpKjJDsEHSPNjQmD-2" value="翻牌器" style="rounded=0;whiteSpace=wrap;html=1;" vertex="1" parent="WIyWlLk6GJQsqaUBKTNV-1">
          <mxGeometry x="160" y="440" width="120" height="60" as="geometry" />
        </mxCell>
        <mxCell id="YJ1XwpKjJDsEHSPNjQmD-8" value="" style="edgeStyle=none;rounded=0;orthogonalLoop=1;jettySize=auto;html=1;" edge="1" parent="WIyWlLk6GJQsqaUBKTNV-1" source="YJ1XwpKjJDsEHSPNjQmD-3" target="YJ1XwpKjJDsEHSPNjQmD-4">
          <mxGeometry relative="1" as="geometry" />
        </mxCell>
        <mxCell id="YJ1XwpKjJDsEHSPNjQmD-3" value="地图" style="rounded=0;whiteSpace=wrap;html=1;" vertex="1" parent="WIyWlLk6GJQsqaUBKTNV-1">
          <mxGeometry x="160" y="540" width="120" height="60" as="geometry" />
        </mxCell>
        <mxCell id="YJ1XwpKjJDsEHSPNjQmD-9" value="" style="edgeStyle=none;rounded=0;orthogonalLoop=1;jettySize=auto;html=1;" edge="1" parent="WIyWlLk6GJQsqaUBKTNV-1" source="YJ1XwpKjJDsEHSPNjQmD-4" target="YJ1XwpKjJDsEHSPNjQmD-5">
          <mxGeometry relative="1" as="geometry" />
        </mxCell>
        <mxCell id="YJ1XwpKjJDsEHSPNjQmD-4" value="3D场景" style="rounded=0;whiteSpace=wrap;html=1;" vertex="1" parent="WIyWlLk6GJQsqaUBKTNV-1">
          <mxGeometry x="160" y="640" width="120" height="60" as="geometry" />
        </mxCell>
        <mxCell id="YJ1XwpKjJDsEHSPNjQmD-5" value="拓扑" style="rounded=0;whiteSpace=wrap;html=1;" vertex="1" parent="WIyWlLk6GJQsqaUBKTNV-1">
          <mxGeometry x="160" y="740" width="120" height="60" as="geometry" />
        </mxCell>
        <mxCell id="YJ1XwpKjJDsEHSPNjQmD-12" value="" style="edgeStyle=none;rounded=0;orthogonalLoop=1;jettySize=auto;html=1;" edge="1" parent="WIyWlLk6GJQsqaUBKTNV-1" source="YJ1XwpKjJDsEHSPNjQmD-11" target="YJ1XwpKjJDsEHSPNjQmD-1">
          <mxGeometry relative="1" as="geometry" />
        </mxCell>
        <mxCell id="YJ1XwpKjJDsEHSPNjQmD-11" value="标题" style="rounded=0;whiteSpace=wrap;html=1;" vertex="1" parent="WIyWlLk6GJQsqaUBKTNV-1">
          <mxGeometry x="160" y="260" width="120" height="40" as="geometry" />
        </mxCell>
      </root>
    </mxGraphModel>
  </diagram>
</mxfile>
